<svg xmlns="http://www.w3.org/2000/svg" viewBox="0 0 803.2 118.43"><g id="图层_2" data-name="图层 2"><g id="图层_1-2" data-name="图层 1"><path d="M274.28,5.42h25.41c22.77,0,33.71,4.77,30.36,28.59l-.35,3.18c-1.59,11.65-6.18,17.47-13.24,20.65,7.06,2.82,9.71,9,7.94,22.41l-.88,6.89c-3.35,26.29-15.71,28.76-33.71,28.76H258.75Zm16.06,94.07c9.53,0,11.29-3.88,12.71-13.06l.88-7.77c1.23-10.23.7-12.88-10.06-12.88h-7.41l-4.59,33.71Zm6.18-50.12c9.7,0,11.11-2.83,12.53-12.71l.35-2.12c1.24-9.17.71-12.7-9.71-12.7h-7.06l-3.7,27.53Z"/><path d="M343.11,5.42h20.82L348.4,115.9H327.58Z"/><path d="M374.34,5.42h20.83L382.11,97.73h29.12l-2.65,18.17H358.81Z"/><path d="M429.76,78l-12-72.54h21l5.83,42.18L462.76,5.42h20.65L450.59,78.31l-5.3,37.59H424.47Z"/><path d="M489.06,5.42h25.23l8,54.89L530,5.42h20L534.41,115.9H513.94L502.65,49.37l-9.36,66.53H473.53Z"/><path d="M613.14,70.12,601.79,81.85c-.75-1.76-1.66-3.85-2.71-6.24a76.73,76.73,0,0,0-3.59-7.13l-8.58,48.94H572.66L580,75.67q-3.15,2.65-6.24,5c-2.06,1.59-4.18,3.11-6.37,4.54a49.47,49.47,0,0,0-.63-5.36q-.51-3.09-1.2-5.93a31.12,31.12,0,0,0-1.32-4.35A98.83,98.83,0,0,0,583.5,54.48,119.71,119.71,0,0,0,600,34.3H573.67l2.39-13.49h19.3a57.54,57.54,0,0,0-3.09-7.32,61.12,61.12,0,0,0-4.1-7.06L601,0a60.27,60.27,0,0,1,5.23,8,35.23,35.23,0,0,1,3.34,7.88l-9.08,4.92h9.21l2.77-.63,6.94,5.55a141.78,141.78,0,0,1-8.26,14.12q-4.61,6.94-9.78,13.37c1.26,1.68,2.72,3.68,4.35,6s3.16,4.48,4.54,6.5S612.64,69.2,613.14,70.12ZM655,104.93h5.81a3.32,3.32,0,0,0,2.77-1.58,20.32,20.32,0,0,0,2.33-5.92q1.2-4.35,2.84-12.55a20.77,20.77,0,0,0,5.11,3.47,28.3,28.3,0,0,0,5.49,2.08,118.74,118.74,0,0,1-4.67,15.32q-2.27,5.61-5.93,7.88t-10.09,2.27H650.1q-7.7,0-10.54-2.83t-1.45-10.79l2.78-15.38a92.25,92.25,0,0,1-14.95,16.71,95.55,95.55,0,0,1-21.5,14.06,20.68,20.68,0,0,0-2-3.78c-.92-1.44-1.89-2.82-2.9-4.17a14.32,14.32,0,0,0-2.9-3,92.08,92.08,0,0,0,21.57-13.88,71.3,71.3,0,0,0,13.43-15.7,70.37,70.37,0,0,0,7.44-16.2,128.94,128.94,0,0,0,3.72-15.26l3.53-20.06h14.38L657.16,46a123.35,123.35,0,0,1-2.9,12.43,102,102,0,0,1-4.92,13.43h7.94l-5,28.63c-.34,1.68-.27,2.83.19,3.47A3,3,0,0,0,655,104.93ZM638.62,18.29l-9.59,54H614.66L626.51,5.42h62.18L676.83,72.27H661.7l9.58-54Z"/><path d="M733.21,63.82H803c-.67,3-1.18,5-1.51,5.92q-3.66,13.62-6.75,22.33a120.13,120.13,0,0,1-5.55,13.55,22.58,22.58,0,0,1-5,7,19.31,19.31,0,0,1-5.49,3.47,19.79,19.79,0,0,1-5.61,1.33c-1.76.16-4,.27-6.81.31s-5.76,0-9-.06a28.18,28.18,0,0,0,0-6.5,19.39,19.39,0,0,0-1.64-6.24q3.9.38,7.31.44c2.27,0,3.95.07,5,.07a10.3,10.3,0,0,0,2.83-.32,5.59,5.59,0,0,0,2.09-1.2q2-1.76,5-8a125.38,125.38,0,0,0,6.49-19H773.57a142.45,142.45,0,0,1-16.72,23.46,118.45,118.45,0,0,1-19.48,18c-.76-.85-1.75-1.85-3-3s-2.48-2.33-3.79-3.47a34.88,34.88,0,0,0-3.47-2.71,93.61,93.61,0,0,0,16.84-14,104.12,104.12,0,0,0,14.06-18.29H747.21A138.07,138.07,0,0,1,726.4,98.44a155.23,155.23,0,0,1-23.46,16.33,33.26,33.26,0,0,0-2.52-3.6c-1.1-1.38-2.25-2.73-3.47-4a33.57,33.57,0,0,0-3.22-3.09,113,113,0,0,0,19.61-11.67,106,106,0,0,0,17-15.45h-11A161.35,161.35,0,0,1,697,92.19q-1-1.38-2.71-3.47c-1.13-1.38-2.29-2.73-3.47-4a24.37,24.37,0,0,0-3.28-3.09A125.12,125.12,0,0,0,706,70.44a113.27,113.27,0,0,0,16.33-14.32h-11.1l9-51.08h83l-9,51.08H739.89q-1.64,2-3.28,3.91C735.52,61.29,734.38,62.56,733.21,63.82ZM729.55,36.2l-1.39,7.94h53l1.39-7.94Zm3.28-19.05L731.44,25h53l1.39-7.82Z"/><polygon points="0 75.07 0 78.08 83.89 55.78 85.78 52.52 0 75.07"/><polygon points="140.93 43.01 227.76 56.46 227.76 87.56 155.63 68.47 140.93 43.01"/><path d="M47.72,118.43,116.1,0l68.37,118.43ZM83.89,55.78l71.74,12.7L140.93,43,85.78,52.52Z"/></g></g></svg>