<?xml version="1.0" encoding="utf-8"?>
<!-- Generator: Adobe Illustrator 25.2.3, SVG Export Plug-In . SVG Version: 6.00 Build 0)  -->
<svg version="1.1" id="图层_1" xmlns="http://www.w3.org/2000/svg" xmlns:xlink="http://www.w3.org/1999/xlink" x="0px" y="0px"
	 viewBox="0 0 803.2 118.4" style="enable-background:new 0 0 803.2 118.4;" xml:space="preserve">
<style type="text/css">
	.st0{fill:#FFFFFF;}
</style>
<g id="图层_2_1_">
	<g id="图层_1-2">
		<path class="st0" d="M274.3,5.4h25.4c22.8,0,33.7,4.8,30.4,28.6l-0.4,3.2c-1.6,11.7-6.2,17.5-13.2,20.7c7.1,2.8,9.7,9,7.9,22.4
			l-0.9,6.9c-3.4,26.3-15.7,28.8-33.7,28.8h-31.1L274.3,5.4z M290.3,99.5c9.5,0,11.3-3.9,12.7-13.1l0.9-7.8
			c1.2-10.2,0.7-12.9-10.1-12.9h-7.4l-4.6,33.7L290.3,99.5z M296.5,49.4c9.7,0,11.1-2.8,12.5-12.7l0.4-2.1
			c1.2-9.2,0.7-12.7-9.7-12.7h-7.1l-3.7,27.5L296.5,49.4z"/>
		<path class="st0" d="M343.1,5.4h20.8l-15.5,110.5h-20.8L343.1,5.4z"/>
		<path class="st0" d="M374.3,5.4h20.8l-13.1,92.3h29.1l-2.6,18.2h-49.8L374.3,5.4z"/>
		<path class="st0" d="M429.8,78l-12-72.5h21l5.8,42.2l18.2-42.2h20.6l-32.8,72.9l-5.3,37.6h-20.8L429.8,78z"/>
		<path class="st0" d="M489.1,5.4h25.2l8,54.9L530,5.4h20l-15.6,110.5h-20.5l-11.3-66.5l-9.4,66.5h-19.8L489.1,5.4z"/>
		<path class="st0" d="M613.1,70.1l-11.4,11.7c-0.8-1.8-1.7-3.8-2.7-6.2c-1.1-2.4-2.3-4.8-3.6-7.1l-8.6,48.9h-14.2l7.3-41.8
			c-2.1,1.8-4.2,3.4-6.2,5c-2.1,1.6-4.2,3.1-6.4,4.5c-0.1-1.8-0.3-3.6-0.6-5.4c-0.3-2.1-0.7-4-1.2-5.9c-0.3-1.5-0.8-2.9-1.3-4.3
			c7-4.2,13.5-9.3,19.3-15.1c6.2-6.1,11.8-12.9,16.5-20.2h-26.3l2.4-13.5h19.3c-0.9-2.5-1.9-5-3.1-7.3c-1.2-2.4-2.6-4.8-4.1-7.1
			L601,0c2,2.5,3.7,5.2,5.2,8c1.4,2.5,2.6,5.1,3.3,7.9l-9.1,4.9h9.2l2.8-0.6l6.9,5.6c-2.5,4.9-5.2,9.6-8.3,14.1
			c-3.1,4.6-6.3,9.1-9.8,13.4c1.3,1.7,2.7,3.7,4.3,6s3.2,4.5,4.5,6.5C611.6,67.7,612.6,69.2,613.1,70.1z M655,104.9h5.8
			c1.1,0,2.2-0.6,2.8-1.6c1.1-1.8,1.9-3.8,2.3-5.9c0.8-2.9,1.7-7.1,2.8-12.6c1.5,1.4,3.2,2.6,5.1,3.5c1.8,0.9,3.6,1.6,5.5,2.1
			c-1.2,5.2-2.8,10.3-4.7,15.3c-1.5,3.7-3.5,6.4-5.9,7.9c-2.4,1.5-5.8,2.3-10.1,2.3h-8.6c-5.1,0-8.6-0.9-10.5-2.8
			c-1.9-1.9-2.4-5.5-1.5-10.8l2.8-15.4c-4.3,6.2-9.3,11.8-15,16.7c-6.5,5.6-13.7,10.4-21.5,14.1c-0.5-1.3-1.2-2.6-2-3.8
			c-0.9-1.4-1.9-2.8-2.9-4.2c-0.8-1.1-1.8-2.1-2.9-3c7.8-3.6,15.1-8.3,21.6-13.9c5.2-4.6,9.7-9.8,13.4-15.7
			c3.2-5.1,5.7-10.5,7.4-16.2c1.5-5,2.8-10.1,3.7-15.3l3.5-20.1h14.4L657.2,46c-0.8,4.2-1.7,8.3-2.9,12.4c-1.3,4.6-3,9.1-4.9,13.4
			h7.9l-5,28.6c-0.3,1.7-0.3,2.8,0.2,3.5C653.1,104.7,654.1,105,655,104.9z M638.6,18.3l-9.6,54h-14.4l11.9-66.9h62.2l-11.9,66.8
			h-15.1l9.6-54L638.6,18.3z"/>
		<path class="st0" d="M733.2,63.8H803c-0.7,3-1.2,5-1.5,5.9c-2.4,9.1-4.7,16.5-6.8,22.3c-1.6,4.6-3.4,9.2-5.5,13.6
			c-1.2,2.6-2.9,5-5,7c-1.6,1.5-3.5,2.6-5.5,3.5c-1.8,0.7-3.7,1.2-5.6,1.3c-1.8,0.2-4,0.3-6.8,0.3s-5.8,0-9-0.1
			c0.3-2.2,0.3-4.3,0-6.5c-0.2-2.2-0.7-4.3-1.6-6.2c2.6,0.3,5,0.4,7.3,0.4c2.3,0,4,0.1,5,0.1c1,0,1.9-0.1,2.8-0.3
			c0.8-0.2,1.5-0.7,2.1-1.2c1.3-1.2,3-3.8,5-8c2.7-6.1,4.8-12.5,6.5-19h-10.8c-4.8,8.4-10.4,16.2-16.7,23.5
			c-5.8,6.7-12.3,12.7-19.5,18c-0.8-0.8-1.8-1.8-3-3s-2.5-2.3-3.8-3.5c-1.1-1-2.3-1.9-3.5-2.7c6.1-4,11.8-8.7,16.8-14
			c5.3-5.6,10.1-11.7,14.1-18.3h-10.8c-6.1,7.9-13.1,15.1-20.8,21.5c-7.3,6.2-15.2,11.6-23.5,16.3c-0.8-1.3-1.6-2.5-2.5-3.6
			c-1.1-1.4-2.2-2.7-3.5-4c-1-1.1-2.1-2.1-3.2-3.1c6.9-3.2,13.5-7.1,19.6-11.7c6.2-4.5,11.9-9.7,17-15.4h-11
			c-7,5.7-14.5,10.8-22.3,15.2c-0.7-0.9-1.6-2.1-2.7-3.5c-1.1-1.4-2.3-2.7-3.5-4c-1-1.1-2.1-2.2-3.3-3.1c6.5-3.2,12.6-6.9,18.5-11.2
			c5.9-4.2,11.4-9,16.3-14.3h-11.1l9-51.1h83l-9,51.1h-54.3c-1.1,1.3-2.2,2.6-3.3,3.9C735.5,61.3,734.4,62.6,733.2,63.8z
			 M729.5,36.2l-1.4,7.9h53l1.4-7.9H729.5z M732.8,17.2l-1.4,7.8h53l1.4-7.8L732.8,17.2z"/>
		<polygon class="st0" points="0,75.1 0,78.1 83.9,55.8 85.8,52.5 		"/>
		<polygon class="st0" points="140.9,43 227.8,56.5 227.8,87.6 155.6,68.5 		"/>
		<path class="st0" d="M47.7,118.4L116.1,0l68.4,118.4H47.7z M83.9,55.8l71.7,12.7L140.9,43l-55.1,9.5L83.9,55.8z"/>
	</g>
</g>
</svg>
